<svg xmlns="http://www.w3.org/2000/svg" width="50" height="50" viewBox="0 0 50 50">
  <path fill="#231F20" d="M31.084 23.964l-4.736-3.18c-.72-.273-1.893-.28-2.616-.012l-4.807 3.214c-1.06.465-1.92 1.78-1.92 2.936v20.21c0 1.418 1.07 2.563 7.56 2.563s8.43-1.146 8.43-2.56V26.923c0-1.156-.858-2.482-1.91-2.958zM27.11 19.35c3.267-1.05 4.448-3.692 3.89-6.954-.574-2.57-2.318-3.913-3.064-6.76-.852-2.657-.508-5.166-.48-5.32-.104.123-2.697 1.717-5.187 4.814-2.28 2.837-3.705 5.683-3.693 8.76.016 4.358 4.95 6.61 8.532 5.46zm-3.18-8.813c.925-1.485 1.892-2.22 1.854-2.225 0-.02-.146 1.183.17 2.458.268 1.31.89 1.93 1.096 3.115.2 1.504-.223 2.72-1.39 3.204-1.28.53-3.044-.508-3.05-2.516-.002-1.42.508-2.732 1.32-4.037zM27.46.306l-.003.01c.002-.01.004-.01.002-.01z"/>
</svg>