<svg xmlns="http://www.w3.org/2000/svg" width="297.941" height="134.343" viewBox="0 0 297.941 134.343">
  <path fill="#FFF" d="M9.588 93.854c0 6.782 0 9.38-1.257 12.35-.878 2.094-2.72 4.062-6.11 6.407-.545.377-1.215.838-1.634 1.047-.084.043-.167.084-.293.084S0 113.657 0 113.49c0-.25.21-.377.586-.628.503-.293 1.09-.794 1.465-1.173 2.723-2.762 4.02-4.98 4.02-15.784v-12.1c0-6.53 0-7.702-.082-9.042-.084-1.423-.42-2.093-1.8-2.386-.336-.085-1.047-.126-1.424-.126-.168 0-.335-.082-.335-.25 0-.253.208-.335.67-.335 1.883 0 4.52.124 4.73.124s2.846-.124 4.103-.124c.46 0 .67.082.67.334 0 .17-.168.25-.335.25-.294 0-.545.042-1.047.127-1.13.208-1.465.92-1.55 2.387-.082 1.34-.082 2.514-.082 9.043v10.05zM23.403 83.804c0-6.53 0-7.702-.083-9.042-.084-1.424-.42-2.094-1.8-2.387-.336-.085-1.048-.126-1.424-.126-.168 0-.335-.083-.335-.252 0-.252.21-.334.67-.334.964 0 2.094 0 3.016.04l1.716.084c.294 0 8.625 0 9.588-.042.796-.04 1.466-.124 1.8-.21.21-.04.377-.208.586-.208.126 0 .168.167.168.377 0 .293-.21.796-.335 1.967-.043.42-.126 2.263-.21 2.766-.042.208-.126.458-.293.458-.25 0-.335-.21-.335-.545 0-.29-.042-1.003-.252-1.504-.293-.67-.71-1.174-2.972-1.424-.712-.084-5.276-.126-5.736-.126-.167 0-.25.126-.25.42V85.27c0 .293.04.417.25.417.545 0 5.694 0 6.657-.084 1.004-.085 1.59-.17 1.967-.586.293-.336.46-.544.628-.544.125 0 .21.083.21.334 0 .252-.21.963-.336 2.346-.084.837-.168 2.385-.168 2.68 0 .334 0 .795-.293.795-.21 0-.294-.167-.294-.378 0-.416 0-.837-.168-1.38-.168-.586-.544-1.3-2.178-1.466-1.13-.126-5.274-.21-5.986-.21-.21 0-.293.125-.293.294v3.686c0 1.422-.04 6.278 0 7.156.127 2.89.755 3.434 4.857 3.434 1.09 0 2.93 0 4.02-.46 1.09-.46 1.59-1.296 1.884-3.015.085-.46.17-.626.378-.626.25 0 .25.334.25.627 0 .337-.334 3.184-.543 4.062-.294 1.09-.63 1.09-2.26 1.09-3.142 0-5.443-.084-7.077-.126-1.633-.082-2.638-.125-3.266-.125-.084 0-.795 0-1.674.044-.838 0-1.8.082-2.43.082-.46 0-.67-.082-.67-.334 0-.127.084-.25.336-.25.377 0 .88-.085 1.256-.17.838-.167 1.047-1.088 1.214-2.303.21-1.76.21-5.065.21-9.084v-7.372zM48.944 83.804c0-6.53 0-7.702-.084-9.042-.083-1.424-.418-2.094-1.8-2.387-.335-.085-1.046-.126-1.424-.126-.168 0-.335-.083-.335-.252 0-.252.21-.334.67-.334.964 0 2.095 0 3.016.04l1.717.042c.837 0 9.336.042 10.3 0 .795-.04 1.465-.04 1.842-.167.25-.085.418-.252.586-.252.168 0 .252.167.252.377 0 .293-.21.796-.335 1.967-.04.42-.126 2.263-.21 2.766-.04.208-.125.458-.334.458-.21 0-.293-.21-.293-.5 0-.337-.126-1.05-.377-1.593-.252-.544-1.214-1.297-2.847-1.34l-6.448-.125c-.25 0-.376.125-.376.46v11.556c0 .252.04.376.292.376l5.36-.04c.71 0 1.298 0 1.883-.043 1.005-.082 1.55-.21 1.927-.754.167-.21.292-.417.46-.417.167 0 .21.124.21.334 0 .252-.21.963-.335 2.346-.085.837-.17 2.51-.17 2.804 0 .377 0 .795-.292.795-.21 0-.293-.167-.293-.375-.042-.42-.083-1.006-.25-1.51-.21-.584-.88-1.34-2.18-1.506-1.045-.125-5.608-.125-6.32-.125-.21 0-.293.08-.293.374v3.562c0 4.02 0 7.325.21 9.083.125 1.214.375 2.135 1.632 2.302.586.085 1.507.17 1.884.17.25 0 .335.123.335.25 0 .21-.21.334-.67.334-2.303 0-4.94-.125-5.15-.125s-2.846.126-4.103.126c-.46 0-.67-.082-.67-.334 0-.127.085-.25.335-.25.377 0 .88-.085 1.257-.17.837-.167 1.047-1.088 1.214-2.303.21-1.76.21-5.065.21-9.084v-7.372zM73.73 83.804c0-6.53 0-7.702-.083-9.042-.084-1.424-.42-2.094-1.8-2.387-.336-.085-1.048-.126-1.424-.126-.168 0-.335-.083-.335-.252 0-.252.21-.334.67-.334.962 0 2.093 0 3.014.04l1.717.042c.836 0 9.336.042 10.298 0 .796-.04 1.466-.04 1.843-.167.253-.085.42-.252.587-.252.168 0 .25.167.25.377 0 .293-.208.796-.334 1.967-.04.42-.126 2.263-.21 2.766-.04.208-.125.458-.334.458s-.294-.21-.294-.5c0-.337-.126-1.05-.377-1.593-.253-.544-1.215-1.297-2.848-1.34l-6.448-.125c-.25 0-.376.125-.376.46v11.556c0 .252.04.376.293.376l5.36-.04c.71 0 1.297 0 1.883-.043 1.005-.082 1.55-.21 1.927-.754.167-.21.292-.417.46-.417.167 0 .21.124.21.334 0 .252-.21.963-.335 2.346-.084.837-.168 2.51-.168 2.804 0 .377 0 .795-.293.795-.21 0-.293-.167-.293-.375-.04-.42-.083-1.006-.25-1.51-.21-.584-.88-1.34-2.177-1.506-1.047-.125-5.61-.125-6.322-.125-.21 0-.292.08-.292.374v3.562c0 4.02 0 7.325.21 9.083.125 1.214.376 2.135 1.632 2.302.586.085 1.508.17 1.884.17.25 0 .335.123.335.25 0 .21-.21.334-.67.334-2.304 0-4.94-.125-5.15-.125s-2.847.126-4.104.126c-.46 0-.67-.082-.67-.334 0-.127.084-.25.335-.25.378 0 .88-.085 1.258-.17.838-.167 1.047-1.088 1.214-2.303.21-1.76.21-5.065.21-9.084v-7.372zM137.414 91.175c0 4.02 0 7.325.21 9.083.125 1.215.375 2.136 1.63 2.303.588.086 1.51.17 1.886.17.25 0 .335.124.335.25 0 .21-.21.335-.67.335-2.303 0-4.94-.125-5.15-.125-.21 0-2.847.125-4.103.125-.46 0-.67-.082-.67-.334 0-.126.084-.25.335-.25.377 0 .88-.084 1.256-.17.837-.166 1.048-1.087 1.215-2.302.21-1.758.21-5.064.21-9.083v-4.398c0-.165-.127-.25-.252-.25h-17.752c-.125 0-.25.042-.25.25v4.398c0 4.02 0 7.325.208 9.083.126 1.215.378 2.136 1.633 2.303.586.086 1.508.17 1.884.17.25 0 .334.124.334.25 0 .21-.21.335-.67.335-2.302 0-4.94-.125-5.15-.125-.208 0-2.846.125-4.102.125-.46 0-.67-.082-.67-.334 0-.126.083-.25.335-.25.377 0 .88-.084 1.256-.17.838-.166 1.047-1.087 1.214-2.302.21-1.758.21-5.064.21-9.083v-7.37c0-6.53 0-7.703-.084-9.043-.084-1.424-.42-2.094-1.8-2.387-.336-.085-1.048-.126-1.424-.126-.17 0-.336-.083-.336-.252 0-.252.21-.334.67-.334 1.884 0 4.52.124 4.73.124.21 0 2.848-.124 4.104-.124.46 0 .67.082.67.334 0 .17-.168.25-.335.25-.294 0-.544.042-1.047.127-1.13.208-1.466.92-1.55 2.387-.083 1.34-.083 2.513-.083 9.042v.88c0 .21.126.25.25.25h17.753c.125 0 .25-.04.25-.25v-.88c0-6.53 0-7.702-.083-9.042-.083-1.424-.418-2.094-1.8-2.387-.335-.085-1.047-.126-1.424-.126-.17 0-.336-.083-.336-.252 0-.252.21-.334.67-.334 1.884 0 4.52.124 4.73.124.21 0 2.848-.124 4.104-.124.46 0 .67.082.67.334 0 .17-.168.25-.335.25-.293 0-.544.042-1.047.127-1.13.208-1.465.92-1.55 2.387-.082 1.34-.082 2.513-.082 9.042v7.37zM152.32 83.804c0-6.53 0-7.702-.085-9.042-.082-1.424-.418-2.094-1.8-2.387-.334-.085-1.047-.126-1.423-.126-.168 0-.335-.083-.335-.252 0-.252.21-.334.67-.334.962 0 2.094 0 3.014.04l1.718.084c.293 0 8.626 0 9.588-.042.796-.04 1.466-.124 1.8-.21.21-.04.377-.208.588-.208.125 0 .167.167.167.377 0 .293-.21.796-.335 1.967-.042.42-.126 2.263-.21 2.766-.042.208-.124.458-.29.458-.253 0-.337-.21-.337-.545 0-.29-.042-1.003-.252-1.504-.293-.67-.71-1.174-2.972-1.424-.712-.084-5.275-.126-5.736-.126-.167 0-.252.126-.252.42V85.27c0 .293.044.417.252.417.544 0 5.694 0 6.657-.084 1.004-.085 1.59-.17 1.97-.586.29-.336.458-.544.625-.544.126 0 .21.083.21.334 0 .252-.21.963-.335 2.346-.083.837-.167 2.385-.167 2.68 0 .334 0 .795-.293.795-.21 0-.293-.167-.293-.378 0-.416 0-.837-.17-1.38-.166-.586-.543-1.3-2.176-1.466-1.13-.126-5.274-.21-5.985-.21-.21 0-.294.125-.294.294v3.686c0 1.422-.04 6.278 0 7.156.126 2.89.755 3.434 4.858 3.434 1.088 0 2.93 0 4.02-.46 1.088-.46 1.59-1.296 1.884-3.015.082-.46.167-.626.375-.626.252 0 .252.334.252.627 0 .337-.334 3.184-.545 4.062-.292 1.09-.626 1.09-2.26 1.09-3.14 0-5.442-.084-7.075-.126-1.634-.082-2.638-.125-3.267-.125-.083 0-.796 0-1.674.044-.837 0-1.802.082-2.43.082-.46 0-.67-.082-.67-.334 0-.127.084-.25.336-.25.377 0 .88-.085 1.255-.17.84-.167 1.047-1.088 1.216-2.303.21-1.76.21-5.065.21-9.084v-7.372zM183.89 72.71c.502-1.382.67-1.632.92-1.632.252 0 .42.208.922 1.505.628 1.592 7.2 18.884 9.755 25.247 1.507 3.727 2.72 4.396 3.6 4.647.63.21 1.257.252 1.677.252.25 0 .42.04.42.25 0 .252-.38.334-.84.334-.627 0-3.684 0-6.573-.082-.795-.043-1.254-.043-1.254-.295 0-.167.125-.25.292-.292.252-.085.503-.46.252-1.132l-3.894-10.298c-.085-.17-.167-.252-.377-.252h-9.003c-.21 0-.335.124-.418.335l-2.514 7.41c-.377 1.048-.585 2.052-.585 2.805 0 .837.88 1.216 1.592 1.216h.42c.29 0 .417.082.417.25 0 .252-.252.334-.63.334-1.004 0-2.805-.125-3.265-.125-.462 0-2.764.124-4.732.124-.544 0-.794-.082-.794-.334 0-.168.166-.25.375-.25.294 0 .88-.042 1.214-.085 1.926-.252 2.763-1.843 3.517-3.936l9.504-26zm4.353 16.746c.21 0 .21-.124.167-.293l-3.976-11.304c-.21-.628-.42-.628-.63 0l-3.683 11.303c-.083.21 0 .293.125.293h7.998zM213.156 91.175c0 4.02 0 7.325.21 9.083.126 1.215.377 2.136 1.633 2.303.585.086 1.506.17 1.883.17.252 0 .336.124.336.25 0 .21-.21.335-.673.335-2.302 0-4.938-.125-5.148-.125s-2.848.125-4.105.125c-.46 0-.67-.082-.67-.334 0-.126.084-.25.336-.25.378 0 .88-.084 1.256-.17.84-.166 1.047-1.087 1.214-2.302.21-1.758.21-5.064.21-9.083V73.463l-6.195.085c-2.597.04-3.602.334-4.27 1.34-.463.71-.59 1.005-.713 1.298-.125.334-.25.417-.42.417-.126 0-.208-.124-.208-.375 0-.42.837-4.02.92-4.354.084-.252.253-.796.42-.796.292 0 .71.417 1.842.5 1.215.127 2.806.21 3.307.21h15.7c1.34 0 2.304-.083 2.974-.21.627-.083 1.004-.207 1.17-.207.21 0 .21.252.21.504 0 1.253-.124 4.143-.124 4.604 0 .375-.126.544-.293.544-.21 0-.293-.127-.336-.713l-.04-.46c-.127-1.256-1.13-2.22-5.15-2.303l-5.276-.085v17.713zM243.637 71.078c9.42 0 16.454 5.944 16.454 15.698 0 9.378-6.613 17.124-16.705 17.124-11.47 0-16.243-8.917-16.243-16.452 0-6.783 4.94-16.37 16.495-16.37zm.88 31.232c3.768 0 11.555-2.177 11.555-14.358 0-10.05-6.113-15.45-12.728-15.45-6.99 0-12.225 4.604-12.225 13.772 0 9.756 5.86 16.036 13.397 16.036zM270.1 97.622c.084 3.432.503 4.52 1.632 4.855.796.21 1.717.252 2.095.252.208 0 .334.082.334.25 0 .252-.25.334-.752.334-2.387 0-4.062-.125-4.438-.125-.377 0-2.136.124-4.02.124-.42 0-.67-.04-.67-.334 0-.168.126-.25.334-.25.336 0 1.09-.042 1.717-.253 1.05-.292 1.257-1.508 1.257-5.317l.043-23.99c0-1.634.126-2.092.46-2.092.336 0 1.047.92 1.466 1.34.628.71 6.865 7.45 13.312 14.358 4.146 4.44 8.71 9.547 10.048 10.928l-.46-21.267c-.04-2.723-.335-3.645-1.632-3.98-.754-.168-1.717-.21-2.053-.21-.292 0-.333-.125-.333-.292 0-.25.334-.292.837-.292 1.884 0 3.894.124 4.355.124.458 0 1.84-.124 3.557-.124.46 0 .754.04.754.292 0 .167-.166.293-.46.293-.21 0-.502 0-1.005.126-1.38.293-1.55 1.214-1.55 3.727l-.082 24.535c0 2.762-.085 2.972-.377 2.972-.336 0-.837-.46-3.057-2.68-.46-.418-6.49-6.572-10.928-11.345-4.858-5.234-9.59-10.51-10.928-12.017l.546 20.057z"/>
  <path fill="#B9B07B" d="M59.232 129.655c0 1.974 0 3.038.324 3.316.262.232.663.34 1.865.34.818 0 1.42-.015 1.806-.432.184-.2.37-.634.4-.927.015-.137.046-.23.17-.23.107 0 .122.078.122.263 0 .17-.107 1.326-.23 1.773-.093.34-.17.417-.972.417-1.11 0-1.912-.03-2.605-.046-.692-.03-1.248-.047-1.88-.047-.17 0-.51 0-.88.016-.353 0-.754.03-1.062.03-.2 0-.31-.046-.31-.152 0-.08.063-.124.247-.124.232 0 .417-.03.556-.062.31-.062.386-.4.448-.847.077-.646.077-1.866.077-3.285v-2.714c0-2.34 0-2.773-.03-3.268-.03-.523-.155-.77-.664-.878-.122-.03-.307-.045-.508-.045-.17 0-.262-.032-.262-.14s.107-.14.34-.14c.724 0 1.695.046 2.11.046.37 0 1.497-.047 2.098-.047.217 0 .324.03.324.14s-.093.14-.277.14c-.17 0-.417.013-.602.044-.416.077-.54.34-.57.878-.03.494-.03.927-.03 3.27v2.713zM70.498 126.94c0-2.34 0-2.773-.03-3.268-.03-.523-.186-.785-.524-.86-.17-.05-.37-.063-.556-.063-.154 0-.246-.032-.246-.156 0-.093.123-.124.37-.124.585 0 1.557.047 2.004.047.386 0 1.295-.047 1.88-.047.2 0 .325.03.325.124 0 .124-.092.155-.246.155s-.277.013-.463.044c-.415.077-.538.34-.57.878-.03.494-.03.927-.03 3.27v2.713c0 1.496 0 2.714.063 3.377.046.417.154.694.616.756.216.03.554.062.785.062.17 0 .247.045.247.124 0 .106-.124.153-.293.153-1.02 0-1.99-.047-2.406-.047-.354 0-1.326.047-1.942.047-.2 0-.31-.047-.31-.153 0-.08.063-.124.248-.124.23 0 .416-.03.555-.062.31-.062.4-.323.447-.77.077-.648.077-1.866.077-3.362v-2.715zM83.272 129.655c0 1.48 0 2.64.076 3.286.047.446.14.786.603.848.216.03.556.062.772.062.2 0 .262.045.262.124 0 .106-.107.153-.34.153-.97 0-1.942-.047-2.343-.047s-1.37.047-1.957.047c-.216 0-.323-.03-.323-.153 0-.08.062-.124.23-.124.23 0 .417-.03.556-.062.31-.062.385-.4.447-.847.077-.646.077-1.804.077-3.285v-2.714c0-2.34 0-2.773-.03-3.268-.032-.523-.155-.77-.664-.878-.123-.03-.386-.045-.6-.045-.156 0-.264-.032-.264-.125 0-.124.123-.155.354-.155.4 0 .85.018 1.25.018.4.014.755.03.97.03.587 0 3.717 0 4.07-.017.294-.013.48-.013.633-.06.09-.032.17-.095.245-.095.062 0 .108.062.108.142 0 .106-.077.293-.124.692-.016.153-.046 1.063-.077 1.25-.016.12-.047.213-.154.213s-.14-.076-.155-.245c0-.124 0-.372-.093-.587-.107-.215-.432-.445-1.017-.462l-2.375-.045c-.092 0-.14.045-.14.215v3.855c0 .092.017.138.108.138l1.974-.014c.263 0 .478 0 .694-.016.292-.016.51-.076.663-.277.075-.093.106-.153.2-.153.06 0 .09.045.09.138s-.075.48-.122.956c-.03.308-.062 1.018-.062 1.124 0 .14 0 .293-.154.293-.092 0-.123-.105-.123-.213 0-.11-.032-.293-.094-.48-.077-.216-.31-.49-.786-.554-.385-.048-2.02-.048-2.282-.048-.076 0-.107.03-.107.14v1.25zM94.784 126.94c0-2.34 0-2.773-.03-3.268-.03-.523-.154-.77-.663-.878-.123-.03-.385-.045-.6-.045-.17 0-.264-.032-.264-.14s.107-.14.34-.14c.415 0 .863.017 1.248.017.4.014.756.03.972.03.494 0 3.562 0 3.854-.017.293-.03.54-.062.663-.093.077-.014.17-.062.247-.062.076 0 .092.062.092.142 0 .106-.077.293-.123 1-.017.153-.048.832-.078 1.02-.016.076-.046.167-.154.167-.107 0-.14-.075-.14-.213 0-.11-.015-.37-.09-.556-.11-.277-.264-.463-1.034-.556-.263-.03-1.882-.06-2.19-.06-.076 0-.107.045-.107.152v3.902c0 .106.016.168.107.168.34 0 2.112 0 2.468-.03.37-.03.6-.076.74-.23.107-.125.17-.2.246-.2.062 0 .108.03.108.122s-.062.34-.124 1.125c-.016.31-.062.926-.062 1.033 0 .124 0 .292-.14.292-.107 0-.138-.062-.138-.138-.016-.154-.016-.354-.062-.555-.077-.31-.294-.54-.863-.604-.293-.03-1.82-.045-2.19-.045-.076 0-.092.063-.092.154v1.218c0 .525-.016 1.942 0 2.39.03 1.064.277 1.296 1.85 1.296.4 0 1.05 0 1.45-.185.4-.185.585-.508.694-1.142.028-.168.06-.23.167-.23.124 0 .124.125.124.278 0 .354-.123 1.403-.2 1.71-.106.402-.246.402-.832.402-1.156 0-2.004-.03-2.667-.046-.662-.03-1.14-.047-1.603-.047-.17 0-.51 0-.88.016-.353 0-.754.03-1.062.03-.2 0-.31-.046-.31-.152 0-.078.063-.123.248-.123.23 0 .416-.03.555-.062.31-.062.385-.4.447-.847.077-.647.077-1.867.077-3.286v-2.71zM117.11 132.662c-1.512-1.326-1.912-3.052-1.912-4.548 0-1.05.324-2.867 1.804-4.225 1.11-1.02 2.575-1.635 4.872-1.635.956 0 1.526.062 2.236.153.585.08 1.078.217 1.54.262.17.017.232.093.232.186 0 .124-.047.31-.077.848-.03.51-.016 1.356-.046 1.667-.017.23-.048.355-.187.355-.124 0-.153-.124-.153-.34-.016-.48-.217-1.018-.603-1.42-.51-.537-1.71-.954-3.13-.954-1.34 0-2.22.34-2.897.955-1.126 1.033-1.42 2.5-1.42 3.995 0 3.668 2.792 5.488 4.857 5.488 1.373 0 2.205-.153 2.82-.863.263-.292.464-.74.525-1.02.046-.244.077-.306.2-.306.108 0 .14.105.14.23 0 .185-.186 1.524-.34 2.048-.077.264-.14.34-.4.448-.617.248-1.79.354-2.775.354-2.11.003-3.883-.46-5.288-1.678zM133.08 126.94c0-2.34 0-2.773-.03-3.268-.03-.523-.155-.77-.664-.878-.123-.03-.386-.045-.602-.045-.17 0-.262-.032-.262-.14s.107-.14.34-.14c.416 0 .863.017 1.248.017.4.014.756.03.972.03.494 0 3.562 0 3.854-.017.293-.03.54-.062.663-.093.076-.014.168-.062.246-.062.076 0 .092.062.092.142 0 .106-.077.293-.123 1-.016.153-.047.832-.077 1.02-.016.076-.047.167-.154.167s-.14-.075-.14-.213c0-.11-.015-.37-.092-.556-.108-.277-.262-.463-1.033-.556-.263-.03-1.882-.06-2.19-.06-.076 0-.107.045-.107.152v3.902c0 .106.016.168.107.168.34 0 2.112 0 2.467-.03.37-.03.603-.076.74-.23.108-.125.17-.2.247-.2.062 0 .107.03.107.122s-.06.34-.122 1.125c-.016.31-.062.926-.062 1.033 0 .124 0 .292-.14.292-.107 0-.138-.062-.138-.138-.016-.154-.016-.354-.062-.555-.077-.31-.294-.54-.863-.604-.293-.03-1.82-.045-2.19-.045-.076 0-.092.063-.092.154v1.218c0 .525-.015 1.942 0 2.39.032 1.064.278 1.296 1.852 1.296.4 0 1.048 0 1.45-.185.4-.185.584-.508.692-1.142.03-.168.062-.23.17-.23.123 0 .123.125.123.278 0 .354-.123 1.403-.2 1.71-.107.402-.247.402-.833.402-1.156 0-2.004-.03-2.667-.046-.663-.03-1.142-.047-1.604-.047-.17 0-.51 0-.88.016-.354 0-.754.03-1.062.03-.2 0-.308-.046-.308-.152 0-.078.062-.123.246-.123.232 0 .417-.03.556-.062.31-.062.385-.4.447-.847.078-.647.078-1.867.078-3.286v-2.71zM148.616 129.655c0 1.974 0 3.038.324 3.316.262.232.663.34 1.866.34.815 0 1.417-.015 1.803-.432.185-.2.37-.634.4-.927.016-.137.046-.23.17-.23.107 0 .122.078.122.263 0 .17-.106 1.326-.23 1.773-.093.34-.17.417-.97.417-1.112 0-1.913-.03-2.607-.046-.693-.03-1.25-.047-1.88-.047-.17 0-.51 0-.88.016-.355 0-.756.03-1.063.03-.2 0-.31-.046-.31-.152 0-.08.063-.124.247-.124.23 0 .416-.03.555-.062.31-.062.385-.4.447-.847.077-.646.077-1.866.077-3.285v-2.714c0-2.34 0-2.773-.032-3.268-.03-.523-.154-.77-.663-.878-.123-.03-.308-.045-.51-.045-.168 0-.26-.032-.26-.14s.106-.14.338-.14c.725 0 1.696.046 2.112.046.37 0 1.496-.047 2.097-.047.217 0 .324.03.324.14s-.093.14-.277.14c-.17 0-.418.013-.603.044-.416.077-.54.34-.57.878-.03.494-.03.927-.03 3.27v2.713zM159.882 126.94c0-2.34 0-2.773-.03-3.268-.032-.523-.154-.77-.664-.878-.122-.03-.384-.045-.6-.045-.17 0-.263-.032-.263-.14s.108-.14.34-.14c.416 0 .86.017 1.247.017.4.014.756.03.972.03.494 0 3.562 0 3.855-.017.292-.03.538-.062.662-.093.076-.014.17-.062.246-.062s.092.062.092.142c0 .106-.076.293-.123 1-.015.153-.046.832-.077 1.02-.016.076-.047.167-.153.167-.108 0-.14-.075-.14-.213 0-.11-.016-.37-.093-.556-.106-.277-.262-.463-1.033-.556-.26-.03-1.88-.06-2.187-.06-.078 0-.108.045-.108.152v3.902c0 .106.016.168.108.168.34 0 2.112 0 2.468-.03.37-.03.602-.076.74-.23.107-.125.17-.2.247-.2.06 0 .106.03.106.122s-.062.34-.122 1.125c-.015.31-.06.926-.06 1.033 0 .124 0 .292-.14.292-.107 0-.14-.062-.14-.138-.015-.154-.015-.354-.06-.555-.078-.31-.293-.54-.865-.604-.293-.03-1.818-.045-2.188-.045-.077 0-.093.063-.093.154v1.218c0 .525-.016 1.942 0 2.39.03 1.064.278 1.296 1.85 1.296.402 0 1.05 0 1.45-.185.4-.185.587-.508.693-1.142.03-.168.062-.23.17-.23.123 0 .123.125.123.278 0 .354-.123 1.403-.2 1.71-.108.402-.246.402-.832.402-1.157 0-2.004-.03-2.667-.046-.662-.03-1.14-.047-1.603-.047-.17 0-.51 0-.88.016-.354 0-.756.03-1.064.03-.2 0-.308-.046-.308-.152 0-.078.062-.123.248-.123.23 0 .415-.03.555-.062.308-.062.385-.4.447-.847.076-.647.076-1.867.076-3.286v-2.71zM173.49 126.94c0-2.34 0-2.773-.032-3.268-.03-.523-.153-.77-.663-.878-.122-.03-.384-.045-.6-.045-.17 0-.263-.032-.263-.14s.108-.14.34-.14c.817 0 1.788.046 2.097.046.753 0 1.355-.047 1.88-.047 2.79 0 3.283 1.494 3.283 2.313 0 1.265-.725 2.02-1.572 2.697 1.266.43 2.807 1.525 2.807 3.33 0 1.65-1.28 3.36-4.116 3.36-.185 0-.63-.03-1.078-.045-.464-.03-.925-.047-1.156-.047-.17 0-.51 0-.88.016-.354 0-.756.03-1.063.03-.2 0-.31-.046-.31-.152 0-.08.063-.124.25-.124.23 0 .414-.03.554-.062.308-.062.386-.4.447-.847.076-.648.076-1.868.076-3.287v-2.712zm1.85.265c0 .122.047.153.107.17.14.03.37.045.725.045.51 0 .85-.062 1.11-.293.4-.323.633-.878.633-1.634 0-1.03-.602-2.39-1.928-2.39-.217 0-.354 0-.51.032-.106.03-.138.09-.138.262v3.808zm2.034 1.233c-.324-.23-.677-.34-1.28-.37-.276-.014-.43-.014-.662-.014-.06 0-.092.03-.092.106v3.654c0 1.02.047 1.28.54 1.48.416.17.77.186 1.126.186.693 0 1.864-.37 1.864-1.974 0-.955-.323-2.25-1.496-3.068zM187.947 126.94c0-2.34 0-2.773-.03-3.268-.03-.523-.154-.77-.664-.878-.122-.03-.384-.045-.6-.045-.17 0-.263-.032-.263-.14s.108-.14.34-.14c.817 0 1.79.046 2.112.046.523 0 1.694-.047 2.173-.047.972 0 2.005.092 2.837.664.432.293 1.05 1.078 1.05 2.11 0 1.14-.48 2.19-2.037 3.455 1.373 1.725 2.437 3.097 3.347 4.053.864.896 1.496 1.002 1.727 1.05.168.028.308.046.432.046.122 0 .185.044.185.123 0 .122-.11.153-.293.153h-1.466c-.862 0-1.248-.078-1.65-.295-.662-.352-1.248-1.077-2.11-2.266-.616-.847-1.326-1.894-1.527-2.126-.075-.092-.168-.108-.276-.108l-1.342-.03c-.075 0-.122.03-.122.123v.217c0 1.433 0 2.652.077 3.3.045.445.138.785.602.847.23.03.568.062.753.062.124 0 .187.044.187.123 0 .106-.11.153-.31.153-.893 0-2.034-.047-2.266-.047-.292 0-1.264.046-1.882.046-.2 0-.31-.047-.31-.153 0-.08.063-.124.25-.124.23 0 .414-.032.554-.063.31-.062.386-.4.448-.847.075-.647.075-1.867.075-3.286v-2.713zm1.82 1.22c0 .17.032.23.14.277.323.108.786.153 1.172.153.615 0 .815-.06 1.093-.262.463-.337.91-1.047.91-2.31 0-2.19-1.45-2.823-2.358-2.823-.386 0-.663.016-.818.062-.106.03-.138.092-.138.216v4.687zM204.07 130.196c-.075 0-.106.03-.137.124l-.834 2.11c-.154.387-.23.755-.23.94 0 .28.14.48.615.48h.232c.185 0 .23.03.23.123 0 .122-.093.153-.262.153-.494 0-1.157-.047-1.634-.047-.17 0-1.017.046-1.82.046-.2 0-.292-.03-.292-.153 0-.094.062-.124.185-.124.14 0 .354-.02.48-.032.71-.093 1-.616 1.31-1.388l3.87-9.56c.186-.446.276-.616.432-.616.138 0 .23.14.386.494.37.847 2.837 7.014 3.824 9.357.585 1.388 1.033 1.604 1.356 1.68.23.046.464.063.647.063.124 0 .2.014.2.124 0 .122-.138.153-.708.153-.557 0-1.682 0-2.916-.03-.277-.017-.462-.017-.462-.123 0-.094.062-.124.216-.142.108-.03.217-.17.14-.353l-1.233-3.178c-.03-.076-.078-.107-.155-.107h-3.44zm3.147-.77c.078 0 .093-.046.078-.094l-1.39-3.792c-.015-.062-.03-.138-.076-.138s-.078.075-.094.138l-1.417 3.777c-.017.062 0 .107.06.107h2.837zM218.977 132.03c.03 1.203.23 1.603.54 1.712.26.09.554.108.802.108.168 0 .26.03.26.124 0 .122-.14.153-.353.153-1.002 0-1.62-.047-1.912-.047-.14 0-.864.047-1.665.047-.2 0-.34-.016-.34-.153 0-.094.094-.124.247-.124.2 0 .48-.018.694-.078.402-.122.464-.57.478-1.913l.14-9.08c0-.31.047-.524.2-.524.17 0 .31.2.57.477.186.202 2.53 2.67 4.78 4.904 1.048 1.048 3.13 3.27 3.392 3.515h.078l-.155-6.922c-.016-.94-.153-1.235-.523-1.39-.232-.09-.602-.09-.818-.09-.184 0-.246-.048-.246-.14 0-.122.17-.14.4-.14.802 0 1.542.047 1.866.047.17 0 .756-.047 1.51-.047.2 0 .354.018.354.14 0 .092-.09.14-.277.14-.153 0-.277 0-.462.045-.433.124-.557.447-.572 1.312l-.168 9.727c0 .34-.062.48-.202.48-.17 0-.353-.17-.523-.338-.97-.927-2.944-2.945-4.548-4.534-1.68-1.666-3.393-3.546-3.67-3.84h-.046l.167 6.428zM238.633 123.335l-2.298.062c-.894.03-1.264.106-1.494.446-.154.232-.23.416-.263.54-.03.123-.076.185-.17.185-.107 0-.14-.077-.14-.248 0-.244.294-1.65.325-1.77.046-.203.093-.294.186-.294.122 0 .277.153.663.185.447.05 1.034.078 1.542.078h6.106c.492 0 .832-.047 1.062-.077.232-.044.354-.075.417-.075.108 0 .124.093.124.323 0 .324-.046 1.39-.046 1.788-.016.155-.046.248-.14.248-.122 0-.153-.08-.168-.31l-.016-.17c-.03-.4-.448-.833-1.82-.864l-1.942-.045v6.32c0 1.42 0 2.64.077 3.3.047.432.14.77.602.833.217.03.554.062.786.062.17 0 .247.045.247.124 0 .106-.124.153-.293.153-1.018 0-1.99-.047-2.42-.047-.356 0-1.327.047-1.944.047-.2 0-.308-.047-.308-.153 0-.08.062-.124.246-.124.233 0 .418-.03.557-.062.31-.062.4-.4.446-.847.078-.646.078-1.866.078-3.285v-6.32z"/>
  <path fill-rule="evenodd" clip-rule="evenodd" fill="#FFF" stroke="#FFF" stroke-width=".441" stroke-miterlimit="10" d="M103.524 14.787c-.2-.106-.396-.228-.604-.32-.302-.137-.653-.146-.757-.607-.045-.205-.416-.336-.64-.5-.33-.25-.676-.492-.99-.766-.095-.084-.157-.272-.135-.396.014-.074.213-.15.334-.166.307-.04.618-.048.95-.187-.11-.047-.22-.103-.334-.144-.354-.12-.73-.162-.847-.652-.042-.18-.365-.292-.563-.437-.294-.214-.606-.41-.874-.656-.146-.135-.21-.354-.312-.536.183-.064.363-.15.553-.186.415-.07.834-.115 1.302-.18-.573-.46-1.29-.757-1.494-1.262-.302-.74-.905-1.19-1.27-1.837-.026-.044-.08-.08-.093-.125-.034-.14-.117-.327-.06-.418.06-.088.287-.15.4-.11.886.31 1.75.065 2.628-.03.435-.045.903.03 1.33.14.68.176 1.33.288 2.05.197.617-.078 1.33-.033 1.888.213 1.25.547 2.55.517 3.844.53 2.02.022 3.97-.36 5.878-1.037 2.202-.778 4.452-1.41 6.797-1.566.827-.056 1.673-.026 2.497.075 1.175.14 2.203.63 2.938 1.613 1.44 1.92 2.877 3.845 4.312 5.77.145.194.27.403.443.663.666-.84 1.23-1.66 1.64-2.61.824-1.917 1.61-3.86 2.618-5.68 1.228-2.218 3.2-3.376 5.798-3.35 1.697.016 3.04.766 4.146 2.005.617.686 1.175 1.43 1.84 2.065 1.224 1.166 1.106 1.155 2.313.016.607-.57 1.146-1.22 1.66-1.875 2.708-3.424 7.576-2.6 9.748.497 1.087 1.558 1.808 3.287 2.506 5.032.486 1.21.913 2.447 1.788 3.458.11.127.215.262.352.425.485-.713.925-1.4 1.41-2.06 1.006-1.353 2.058-2.673 3.048-4.035 1.128-1.547 2.72-2.04 4.52-2.067 2.31-.028 4.518.55 6.708 1.194 1.433.422 2.847.917 4.306 1.224 1.784.378 3.605.276 5.415.14.2-.015.4-.114.595-.195.96-.413 1.953-.562 2.996-.417.413.056.887.012 1.276-.133.842-.313 1.665-.24 2.516-.15.58.06 1.168-.027 1.757-.034.154-.002.312.04.47.064-.036.17-.03.37-.12.504-.246.36-.555.676-.803 1.033-.162.238-.26.522-.396.78-.04.077-.082.158-.147.208-.448.356-.908.703-1.472 1.14.5.064.927.107 1.35.183.182.036.357.14.53.212-.098.168-.16.375-.304.493-.31.275-.68.488-1 .757-.208.18-.344.458-.56.613-.32.223-.685.37-1.163.62.385.037.676.05.958.102.153.028.293.123.44.186-.073.145-.108.332-.22.43-.317.272-.68.488-.992.764-.244.213-.432.5-.684.71-.17.15-.417.226-.625.337-.214.113-.427.227-.64.343v.185c.42.168.853.33 1.265.514.167.072.302.203.444.308-.115.133-.207.317-.354.39-.436.21-.906.364-1.347.568-.198.095-.374.26-.56.39-.07.05-.138.122-.216.135-.57.098-1.14.186-1.752.28.28.545.747.918 1.29 1.222.165.09.282.27.422.407-.178.113-.343.258-.536.326-.227.08-.475.12-.715.135-.85.058-1.602.392-2.36.732-.432.19-.88.335-1.307.53-.19.085-.327.283-.52.36-.307.13-.638.202-.992.306.25.5.693.847 1.213 1.136.176.096.286.298.433.45-.183.104-.36.257-.55.302-.442.098-.897.127-1.34.22-.204.042-.392.17-.594.246-.14.054-.294.115-.434.113-.39-.012-.778-.057-1.256-.095.383.412.266.64-.163.713-.77.136-1.544.252-2.32.368-.266.04-.546 0-.69.346-.03.095-.297.133-.46.134-.496.008-.985-.358-1.497-.025-.057.036-.197-.042-.29-.087-.297-.143-.6-.284-.884-.45-.325-.188-.648-.584-.954-.568-.51.03-1.01.313-1.573.513 1.68 2.233 3.47 4.18 6.48 4.292 1.527.06 3.07.046 4.592.213 2.225.247 4.208 1.16 5.98 2.525.146.112.192.354.29.537-.2.01-.42.082-.597.02-.965-.34-1.956-.283-2.948-.206-.596.047-1.183.15-1.933.25.396.237.646.38.896.534 2.8 1.756 4.762 4.19 5.948 7.265.04.095.106.2.093.293-.013.155-.07.306-.116.458-.132-.045-.303-.053-.404-.14-.404-.354-.763-.772-1.19-1.095-1.117-.84-2.264-1.646-3.398-2.463-.03.04-.062.08-.09.123.49.682 1.02 1.34 1.466 2.055 1.876 3.02 2.53 6.333 2.296 9.85-.016.27-.22.53-.332.793-.16-.226-.376-.428-.47-.68-1.21-3.3-2.68-6.463-4.834-9.267-1.05-1.36-2.25-2.557-3.65-3.563-2.286-1.64-4.82-2.163-7.578-1.8-2.26.295-4.517.632-6.78.828-2.884.248-5.745.055-8.53-.817-5.116-1.606-8.26-5.06-9.405-10.283-.66-3.04-.676-6.097.03-9.164.455-1.973.595-4 .06-6.005-.23-.87-.615-1.66-1.28-2.293-1.412-1.354-3.307-1.36-4.72-.008-.93.89-1.32 2.032-1.49 3.262-.256 1.87-.065 3.714.376 5.54.48 1.99.45 4.013.312 6.03-.173 2.474-.79 4.838-2.066 6.995-1.98 3.344-4.983 5.26-8.684 6.19-2.91.73-5.86.772-8.822.462-2.263-.238-4.52-.542-6.784-.79-2.562-.28-4.748.67-6.742 2.16-2.23 1.67-3.93 3.82-5.208 6.26-1.06 2.027-1.915 4.166-2.86 6.255-.07.16-.105.337-.194.484-.056.088-.197.204-.27.187-.106-.027-.245-.148-.27-.253-.066-.27-.095-.55-.107-.828-.198-4.274.902-8.13 3.705-11.434.04-.047.07-.1.106-.153l-.105-.135c-1.106.79-2.228 1.57-3.318 2.384-.43.322-.787.738-1.2 1.084-.136.113-.343.138-.517.203-.014-.19-.092-.404-.032-.567 1.03-2.85 2.78-5.16 5.247-6.924.477-.343.985-.642 1.605-1.04-.628-.08-1.133-.156-1.64-.208-1.147-.115-2.292-.218-3.397.252-.103.045-.27-.06-.403-.1.04-.136.034-.33.125-.402.39-.315.795-.624 1.225-.886 2.083-1.27 4.34-1.924 6.79-1.933 1.214-.005 2.434-.045 3.638-.18 1.458-.164 2.65-.93 3.662-1.958.666-.677 1.27-1.417 1.963-2.197-.6-.205-1.08-.39-1.576-.527-.11-.03-.273.086-.402.16-.436.25-.855.528-1.3.77-.25.133-.48.23-.82.06-.24-.12-.63.067-.95.116-.314.05-.612.12-.8-.277-.053-.112-.327-.14-.507-.17-.77-.124-1.548-.225-2.32-.35-.267-.042-.526-.103-.442-.5.01-.044-.32-.237-.483-.228-.422.028-.775.123-1.206-.178-.344-.24-.916-.13-1.37-.24-.31-.076-.596-.26-.89-.397.223-.19.448-.382.667-.575.356-.313.707-.63 1.03-.92-1.015-.445-1.958-.84-2.882-1.27-.852-.396-1.725-.7-2.665-.786-.05-.006-.11 0-.154-.02-.258-.11-.513-.23-.77-.345.2-.188.396-.38.6-.562.396-.35.794-.697 1.24-1.09-.674-.105-1.222-.142-1.736-.29-.318-.09-.576-.382-.885-.525-.44-.21-.915-.347-1.352-.557-.162-.077-.265-.276-.395-.42.152-.1.29-.225.453-.297.404-.18.823-.338 1.235-.504.002-.07.005-.14.01-.21zm-.448 1.138c.257.103.448.175.636.262.754.345 1.415.28 1.94-.424.022-.028.044-.066.073-.074.124-.035.284-.116.368-.068.086.048.132.23.132.348 0 .13-.074.257-.084.285.468.04.966.005 1.41.14.33.1.61.398.875.652.125.12.156.336.23.51-.185.014-.392.09-.55.033-.52-.186-.996-.213-1.396.217-.365.39-.707.8-1.064 1.21 1.263.388 1.697.245 2.46-.763.08-.102.28-.212.368-.178.105.04.18.226.215.363.027.103-.03.228-.05.344.182-.138.29-.308.405-.477.112-.164.225-.326.338-.488l.48.37c.065-.126.105-.27.196-.368.11-.124.266-.21.4-.312.056.175.21.402.15.522-.227.454-.477.912-.806 1.29-.262.303-.652.497-1.028.77.808.277 1.518.74 2.378.096.503-.38.433.514.822.575.063.01.11.26.118.4.003.06-.106.126-.168.187-.513.533-1.03 1.063-1.575 1.63 1.047.22 2.014.406 2.544-.8.04-.09.265-.203.322-.17.106.065.193.222.223.355.024.132-.03.28-.073.57.204-.304.347-.477.44-.675.3-.633.382-.653.764-.18.197-.208.398-.42.602-.63.12.17.236.34.364.524.057-.082.108-.245.195-.266.242-.06.57-.168.728-.06.302.206.017.392-.153.568-.64.672-1.27 1.353-1.925 2.058.64.07 1.276.138 1.913.212.754.09 1.265-.273 1.652-.87.096-.145.15-.327.27-.444.117-.113.294-.17.443-.25.056.167.192.363.15.5-.112.352-.303.68-.48 1.055.63-.35 1.057-.832 1.307-1.492.058-.153.26-.255.393-.38.093.17.224.332.274.515.036.133-.032.298-.055.45.296-.332.473-.706.692-1.055.092-.15.27-.245.41-.366.06.192.2.4.164.572-.086.398-.26.78-.4 1.187.077.028.156.062.237.088 2.794.96 5.653 1.622 8.606 1.812 1.977.125 3.935-.016 5.818-.692 1.05-.38 1.984-.926 2.65-1.86.208-.292.224-.532.03-.85-1.642-2.69-3.232-5.41-4.902-8.08-1.773-2.835-3.642-5.604-5.77-8.193-1.013-1.235-2.266-1.766-3.81-1.82-2.3-.077-4.49.47-6.664 1.113-1.93.572-3.8 1.385-5.853 1.458-1.68.06-3.368.24-5.016-.275-.073-.02-.184-.04-.235-.003-.335.237-.563.03-.846-.13-.258-.144-.667-.333-.853-.225-.35.195-.642.185-.984.104-.095-.02-.248-.028-.293.025-.36.435-.616.216-.874-.11-.062-.08-.168-.12-.324-.23.044.15.076.2.072.245-.026.222.015.57-.107.64-.332.193-.41-.168-.533-.384-.24-.41-.59-.648-1.07-.61-.544.045-1.084.133-1.664.207.12.14.21.244.29.354.53.736 1.167 1.135 2.1.718.097-.043.334.036.378.123.05.098-.02.285-.093.4-.062.104-.195.166-.298.245.308-.008.576-.12.853-.19.133-.036.347-.057.41.014.074.086.047.282.023.423-.018.09-.11.163-.126.185.09.204.254.408.205.51-.063.133-.286.21-.456.264-.682.22-1.37.418-2.11.644.855.714 1.636 1.305 2.654.464.074-.06.296-.04.365.03.07.07.07.253.037.37-.04.13-.15.242-.227.36.272-.077.475-.233.7-.35.146-.075.323-.09.486-.132-.005.206.074.5-.03.598-.504.47-.91 1.083-1.654 1.242-.215.046-.422.137-.704.232.324.22.603.394.865.588.5.374.994.346 1.5.013.07-.05.143-.123.222-.13.14-.01.338-.027.415.05.07.074.024.273.007.412-.014.076-.074.146-.114.216.258-.057.434-.208.64-.283.134-.05.373-.045.45.04.07.082.056.347-.024.447-.255.31-.534.616-.85.86-.474.364-.995.683-1.568 1.073zm94.654-9.787c-.03-.03-.063-.057-.097-.086-.117.132-.22.3-.374.385-.14.08-.426.16-.484.095-.237-.274-.49-.177-.763-.132-.164.025-.395.05-.5-.036-.413-.35-.736-.102-1.088.095-.162.09-.396.283-.487.234-.44-.238-.783.09-1.168.126-2.015.19-4.048.283-6.035-.163-1.54-.343-3.033-.88-4.552-1.32-2.16-.632-4.34-1.155-6.623-1.007-1.272.083-2.425.435-3.26 1.5-.447.573-.954 1.107-1.39 1.69-3.573 4.714-6.568 9.8-9.573 14.88-.197.343-.158.603.06.9.547.73 1.264 1.234 2.09 1.598 1.44.64 2.97.873 4.525.928 2.6.09 5.13-.337 7.633-.994 1.03-.27 2.05-.598 3.044-.892-.166-.467-.33-.835-.41-1.22-.035-.173.106-.38.17-.574.136.122.312.216.404.366.225.354.412.734.61 1.104.095-.115.082-.183.068-.247-.084-.307-.11-.635.24-.736.103-.026.346.296.442.497.27.584.668 1.023 1.232 1.334-.17-.386-.358-.735-.476-1.104-.037-.118.11-.292.175-.44.14.07.31.107.414.21.116.12.145.332.27.44.353.317.712.81 1.107.855.816.09 1.662-.066 2.52-.123-.766-.803-1.454-1.51-2.13-2.228-.22-.23-.11-.494.14-.506.286-.012.572.155.873.245l.274-.372c.206.22.413.437.587.62.14-.092.303-.287.43-.264.13.026.232.25.33.397.132.203.254.416.35.574l.206-.756c.184.142.368.282.547.426.29.227.552.592.87.656.467.092.97-.034 1.522-.068-.464-.512-.843-.938-1.23-1.36-.313-.34-1.04-.63-.117-1.107.023-.012-.006-.103.014-.15.12-.32.336-.355.62-.2.793.44 1.42.388 2.204-.17-.362-.265-.794-.475-1.073-.81-.32-.386-.52-.875-.733-1.34-.038-.08.09-.313.192-.36.08-.035.28.078.358.178.115.142.17.335.232.477.174-.134.325-.253.48-.368.11.158.228.316.34.478.116.165.227.33.307.445.087-.243.17-.462.254-.68.144.09.34.145.428.274.616.92 1.345 1.124 2.382.64-.257-.302-.522-.597-.78-.902-.543-.648-.88-.734-1.696-.46-.145.048-.333-.035-.5-.057.062-.16.083-.374.198-.475.19-.162.48-.212.668-.38.473-.422 1.147-.58 1.707-.317-.046-.115-.116-.207-.116-.297.005-.157.052-.312.086-.472.153.047.34.052.45.146.895.807 1.47.843 2.512.138-.382-.284-.785-.556-1.167-.857-.37-.29-.734-.59-1.058-.927-.122-.13-.12-.38-.176-.575.202.013.416-.013.597.045.203.062.383.2.514.268-.032-.238-.068-.478-.098-.715.234.045.463.094.7.134.345.06.728.233 1.03.14.444-.14.83-.47 1.32-.766-.25-.076-.38-.13-.514-.155-.812-.153-1.317-.754-1.862-1.29-.117-.113-.063-.4-.084-.605.174.035.363.04.52.115.228.105.435.258.608.368-.052-.276-.102-.51-.143-.746.227.04.488.026.682.132.79.44 1.633.22 2.298-.667-.686-.207-1.367-.404-2.04-.62-.173-.053-.397-.14-.452-.27-.048-.107.128-.303.166-.382l-.102-.707c.215.02.432.025.647.063.213.04.422.106.635.16-.065-.135-.192-.187-.248-.28-.07-.133-.096-.296-.14-.45.146-.03.315-.117.452-.086 1.135.272 1.704 0 2.264-1.104-.41-.05-.824-.09-1.232-.148-.798-.12-1.09.024-1.51.705-.085.132-.28.195-.423.29-.06-.174-.136-.347-.176-.53-.014-.087.05-.192.08-.292zm-4.692 25.38c-1.05-.63-2.212-1.186-3.464-1.346-1.638-.208-3.292-.277-4.938-.327-2.12-.07-3.962-.752-5.45-2.27-.64-.66-1.233-1.37-1.818-2.085-.237-.293-.427-.392-.823-.28-2.502.7-5.044 1.192-7.66 1.218-1.77.015-3.51-.164-5.183-.793-1.23-.463-2.3-1.146-2.993-2.322-.21-.353-.222-.638 0-1.002 1.92-3.13 3.816-6.275 5.735-9.406.215-.352.28-.587-.02-.94-.766-.89-1.33-1.902-1.72-3.02-.266-.77-.595-1.522-.925-2.272-.663-1.536-1.362-3.057-2.58-4.257-1.963-1.925-5.19-2.185-7.133-.442-1.23 1.102-2.28 2.4-3.42 3.624 2.314.684 3.343 2.407 3.668 4.654.284 1.937.102 3.852-.337 5.75-.59 2.605-.546 5.228-.074 7.832.925 5.114 3.754 8.674 8.743 10.37 3.407 1.158 6.908 1.182 10.434.78 1.454-.162 2.882-.5 4.335-.592 1.184-.077 2.227-.414 3.27-.93 1.72-.852 3.468-.776 5.18.062.64.312 1.25.683 1.853 1.065.776.49 1.49 1.095 2.3 1.513 1.743.896 3.43 1.866 4.94 3.116.105.09.227.167.46.333-1.522-3.06-3.667-5.273-6.62-6.696-.19-.09-.33-.305-.49-.462.198-.108.388-.287.602-.317 1.37-.204 2.752-.376 4.128-.558zM104.39 39.38c.042.026.08.056.12.086.067-.046.136-.09.197-.142 1.625-1.36 3.43-2.44 5.344-3.34.234-.108.44-.275.66-.414 1.085-.69 2.135-1.444 3.263-2.054 1.123-.606 2.38-.875 3.64-.54.916.244 1.78.682 2.67 1.03.224.087.447.21.68.24 2.24.285 4.48.585 6.728.82 2.703.283 5.395.197 8.045-.452 4.237-1.04 7.44-3.373 9.198-7.47.854-1.995 1.266-4.098 1.258-6.25-.004-1.593-.09-3.208-.37-4.773-.353-1.985-.634-3.954-.32-5.96.332-2.158 1.324-3.834 3.548-4.532.04-.013.063-.07.046-.05-.896-1-1.77-1.99-2.66-2.966-.7-.772-1.51-1.383-2.552-1.635-2.275-.558-4.63.267-6.03 2.352-.856 1.272-1.49 2.704-2.14 4.106-.72 1.558-1.146 3.26-2.35 4.562-.28.3-.248.515-.043.853 1.932 3.142 3.834 6.303 5.765 9.45.236.383.214.678-.01 1.047-.593.98-1.46 1.628-2.48 2.082-1.82.81-3.752 1.015-5.716.995-2.634-.026-5.19-.535-7.71-1.238-.305-.086-.47-.03-.664.214-.485.61-.987 1.214-1.516 1.794-1.69 1.87-3.807 2.68-6.326 2.656-1.486-.014-2.99.112-4.463.324-1.247.178-2.405.71-3.433 1.34 1.37.183 2.767.356 4.156.565.203.03.38.222.572.34-.155.143-.287.335-.47.423-1.987.948-3.67 2.276-4.99 4.034-.597.795-1.1 1.666-1.644 2.502zm90.043 8.975c.052-.122.072-.15.072-.178-.055-6.24-2.978-11.195-9.08-14.2-.295-.146-.615-.245-.932-.332-1.315-.354-2.56-.16-3.8.464.732.162 1.416.263 2.07.47.677.217 1.346.483 1.976.814 2.735 1.454 4.71 3.697 6.37 6.257 1.35 2.08 2.39 4.315 3.323 6.704zm-75.245-14.204c-1.683-.848-3.272-.932-4.83-.16-4.2 2.08-7.24 5.182-8.493 9.823-.396 1.456-.56 2.942-.528 4.453.11-.144.177-.297.24-.452 1.282-3.178 2.82-6.213 5.088-8.818 2.233-2.568 4.878-4.45 8.523-4.847z"/>
</svg>