<svg xmlns="http://www.w3.org/2000/svg" width="50" height="50" viewBox="0 0 50 50">
  <path fill-rule="evenodd" clip-rule="evenodd" fill="#3B3A3C" d="M24.958 10.663c.69-.897 1.308-1.805 2.035-2.617 2.665-3.01 6.065-4.484 10.05-4.315 7.947.343 13.508 7.064 12.57 14.977-.61 5.143-2.84 9.555-6.036 13.51-4.604 5.7-10.237 10.156-16.706 13.58-1.332.703-2.48.67-3.8-.023C17.39 42.79 12.39 38.928 8.078 34.19 5.05 30.868 2.59 27.174 1.25 22.834.248 19.58-.118 16.3.853 12.945 2.54 7.105 8.686 3.02 14.71 3.783c4.33.545 7.622 2.668 9.895 6.392.09.15.188.295.284.438.016.02.042.03.068.05zm24.1 6.366c-.074-.748-.11-1.497-.23-2.235-.84-5.355-5.04-9.456-10.508-10.29-5.13-.78-10.456 2.065-12.77 6.793-.13.268-.385.472-.58.702-.183-.224-.398-.43-.523-.678-2.092-4.008-5.387-6.395-9.852-6.857C7.07 3.68.785 9.68.983 17.253c.12 4.23 1.655 8.004 3.852 11.516 1.016 1.625 2.253 3.136 3.53 4.577 4.315 4.88 9.364 8.844 15.13 11.898 1.03.545 1.985.627 2.968 0 2.528-1.615 5.148-3.094 7.544-4.888 5.256-3.934 9.783-8.558 12.75-14.528 1.372-2.775 2.167-5.693 2.3-8.8z"/>
</svg>