<svg xmlns="http://www.w3.org/2000/svg" width="50" height="50" viewBox="0 0 50 50">
  <g fill-rule="evenodd" clip-rule="evenodd" fill="#3B3A3C">
    <path d="M28.576 11.24c.032-1.234.388-2.31 1.274-3.162 1.43-1.394 3.756-1.08 4.87.647 1.042 1.62.857 4.237-.415 5.696-1.16 1.328-3.004 1.4-4.322.155-.96-.91-1.375-2.062-1.407-3.336zM18.055 1.023c1.107.016 1.963.534 2.607 1.443 1.308 1.867.91 4.664-.856 6.1-1.385 1.133-3.224.894-4.273-.552-1.198-1.655-1.237-4.136-.097-5.68.647-.87 1.514-1.294 2.62-1.31zM40.005 11.715c-.024.75-.226 1.443-.71 2.03-.798.955-1.92.773-2.377-.384-.412-1.065-.082-2.488.774-3.24.678-.595 1.528-.496 1.963.292.206.386.29.848.436 1.272-.03.012-.063.023-.085.03zM13.263 6.447c-.068.215-.134.63-.316.992-.413.822-1.305.962-1.997.35-.895-.775-1.223-2.317-.73-3.385.436-.937 1.388-1.13 2.14-.424.656.617.87 1.41.903 2.467zM9.326 8.133c-.005.963-.595 1.715-1.5 1.855-.595.1-1.1-.148-1.503-.578-.64-.685-.725-1.806-.2-2.566.662-.96 2-.98 2.747-.036.3.388.448.832.456 1.325zM44.21 14.358c-.014.504-.265 1.074-.817 1.496-.827.62-1.964.385-2.46-.53-.413-.784-.344-1.56.166-2.28.464-.648 1.24-.893 1.937-.66.705.24 1.17.95 1.173 1.974zM45.89 15.11c.61.01 1.026.28 1.302.768.463.807.215 1.886-.528 2.403-.71.49-1.592.34-2.064-.37-.41-.604-.416-1.255-.095-1.893.295-.568.773-.89 1.385-.908zM5.7 10.732c-.003.91-.647 1.635-1.47 1.652-.848.01-1.622-.766-1.655-1.696-.033-.658.198-1.217.776-1.567.516-.304 1.047-.277 1.538.045.564.366.812.906.812 1.567zM1.468 15.26c-.792 0-1.42-.637-1.41-1.44.006-.775.645-1.42 1.41-1.427.793-.008 1.47.664 1.457 1.454 0 .786-.645 1.412-1.457 1.412zM48.514 21.445c-.804 0-1.438-.63-1.438-1.426 0-.788.644-1.435 1.438-1.44.778 0 1.432.652 1.43 1.437-.002.795-.635 1.428-1.43 1.428zM47.544 28.15c-.104-1.438-.283-2.875-.55-4.29-.414-2.303-1.6-4.125-3.622-5.37-1.35-.83-2.803-1.407-4.272-1.944-1.616-.586-3.27-.694-4.957-.405-1.494.257-2.692 1.05-3.75 2.066-.33.322-.586.727-.858 1.107-.843 1.173-1.386 2.453-1.333 3.932.04.944.29 1.845.675 2.7.593 1.322 1.208 2.636 1.848 3.94.94 1.926.997 3.872.165 5.84-.413.98-.826 1.95-1.26 2.917-.632 1.412-1.152 2.855-1.103 4.436v.958c-.033 1.922 1.55 3.938 3.11 4.516 1.75.646 3.468.523 5.15-.165 2.05-.826 3.58-2.285 4.86-4.042 1.06-1.468 1.822-3.1 2.54-4.76 1.04-2.433 2.112-4.858 2.795-7.422.362-1.314.662-2.652.562-4.014zM18.936 28.996c-.418-1.107-.608-2.272-.29-3.435.25-.88.61-1.74.976-2.58.526-1.205 1.14-2.37 1.655-3.576.465-1.1.694-2.263.446-3.454-.43-2.122-1.633-3.754-3.373-4.972-1.776-1.24-3.816-1.42-5.862-1.03-2.114.408-4.083 1.27-5.917 2.402-1.613 1-2.722 2.412-3.28 4.23-.563 1.816-.717 3.7-.855 5.45.04 2.055.504 3.89 1.115 5.693.878 2.57 1.966 5.047 3.104 7.508.713 1.543 1.616 2.97 2.76 4.22 1.725 1.875 3.75 3.197 6.376 3.32 1.715.077 3.257-.363 4.41-1.753.63-.764 1.135-1.59 1.242-2.603.2-2.044-.13-3.984-1.01-5.85-.543-1.166-1.04-2.36-1.496-3.568z"/>
  </g>
</svg>